# xmcd
#
# Track frame offsets: 
#        150
#        8811
#        24113
#        36888
#        45555
#        54786
#        64254
#        77067
#        86298
#        96476
#        107899
#        116604
#
# Disc length: 1707 seconds
#
# Revision: 0
# Processed by: cddbd v1.5.2PL0 Copyright (c) Steve Scherf et al.
# Submitted via: ExactAudioCopy v0.95b4
#
DISCID=8a06a90c
DTITLE=Zephyr Lightning Bolts - Lightning Strikes Again
DYEAR=2000
DGENRE=Bluegrass
TTITLE0=Rabbit Up A Gum Stump
TTITLE1=Pig In A Pen
TTITLE2=Lady Of The Lake
TTITLE3=Sally Was A Poor Girl
TTITLE4=Blind Fiddler
TTITLE5=Redwing
TTITLE6=Soldier's Joy
TTITLE7=The Flowers Of Edinburgh
TTITLE8=Cumberland Gap
TTITLE9=The Old Country Church
TTITLE10=John Henry
TTITLE11=Down In The Willow Garden
EXTD=
EXTT0=
EXTT1=
EXTT2=
EXTT3=
EXTT4=
EXTT5=
EXTT6=
EXTT7=
EXTT8=
EXTT9=
EXTT10=
EXTT11=
PLAYORDER=
